    <svg xmlns="http://www.w3.org/2000/svg" width="400" height="400">
        <style>
            #outer-big-line{
                stroke-width: 2;
                stroke-linecap: round;
            }
            #outer-small-line{
                stroke-width: .2;
                stroke: #dd8503;
            }
        </style>
       
        <g id="circles">
            <circle cx="200" cy="200" r="60" fill="none" stroke="#fdf505ff" fill-opacity="0.4" />
            <circle cx="200" cy="200" r="70" fill="none" stroke="#fdf505ff" fill-opacity="0.4" />
        </g>
        
        
        <g id="outer-big-line">
            <path d="M0,200 l20,0"  />
            <path d="M0,200 l20,0"  transform="rotate(90, 200, 200)" />
            <path d="M0,200 l20,0"  transform="rotate(45, 200, 200)" />
            <path d="M0,200 l20,0"  transform="rotate(180, 200, 200)" />
            <path d="M0,200 l20,0"  transform="rotate(135, 200, 200)" />
            <path d="M0,200 l20,0"  transform="rotate(225, 200, 200)" />
            <path d="M0,200 l20,0"  transform="rotate(270, 200, 200)" />
            <path d="M0,200 l20,0"  transform="rotate(315, 200, 200)" />
        </g>
        <g id="outer-small-line">
            <path d="M10,200 l20,0"/>
            <path d="M10,200 l20,0" transform="rotate(22.5, 200, 200)" />
            <path d="M10,200 l20,0" transform="rotate(67.5, 200, 200)" />
            <path d="M10,200 l20,0" transform="rotate(112.5, 200, 200)" />
            <path d="M10,200 l20,0" transform="rotate(157.5, 200, 200)" />
            <path d="M0,200  l20,0"  transform="rotate(202.5, 200, 200)" />
            <path d="M10,200 l20,0" transform="rotate(247.5, 200, 200)" />
            <path d="M10,200 l20,0" transform="rotate(292.5, 200, 200)" />
            <path d="M10,200 l20,0" transform="rotate(337.5, 200, 200)" />
        </g>
    </svg>