<!-- Phone icon (white) -->
<svg xmlns="http://www.w3.org/2000/svg" width="32" height="32" viewBox="0 0 24 24" role="img" aria-label="Phone">
  <title>Phone</title>
  <rect width="24" height="24" rx="4" fill="none"/>
  <path fill="#ffffff" d="M6.6 10.2c1.2 2.4 3 4.3 5.3 5.4l1.2-1.2c.3-.3.8-.4 1.2-.2 1.3.5 2.7.8 4.1.8.4 0 .7.3.8.7l.9 3.2c.1.4 0 .8-.3 1.1l-1.6 1.6c-.4.4-1 .5-1.5.2-3.5-2.1-6.4-5-8.5-8.5-.3-.5-.2-1.1.2-1.5l1.6-1.6c.3-.3.7-.4 1.1-.3l3.2.9c.4.1.7.4.7.8 0 1.4.3 2.8.8 4.1.2.4.1.9-.2 1.2l-1.2 1.2C10.9 17 8.9 15.2 6.6 13c-1.2-1.1-2.2-2.3-3.1-3.6-.3-.5-.2-1.1.2-1.5L5.3 6c.4-.4 1-.5 1.5-.2 1.3.9 2.5 1.9 3.6 3.1z"/>
</svg>
